PathFileType	4	(X/Y/Z)	RBDS020\RBDS020runT35.trc
DataRate	CameraRate	NumFrames	NumMarkers	Units	OrigDataRate	OrigDataStartFrame	OrigNumFrames
150.000000	150.000000	4	33	mm	150.000000	1687	4500
Frame#	Time	L.ASIS			L.Heel.Bottom			L.Heel.Lateral			L.Heel.Top			L.Iliac.Crest			L.MT1			L.MT5			L.PSIS			L.Shank.Bottom.Lateral			L.Shank.Bottom.Medial			L.Shank.Top.Lateral			L.Shank.Top.Medial			L.Thigh.Bottom.Lateral			L.Thigh.Bottom.Medial			L.Thigh.Top.Lateral			L.Thigh.Top.Medial			R.ASIS			R.ASY			R.Heel.Bottom			R.Heel.Lateral			R.Heel.Top			R.Iliac.Crest			R.MT1			R.MT5			R.PSIS			R.Shank.Bottom.Lateral			R.Shank.Bottom.Medial			R.Shank.Top.Lateral			R.Shank.Top.Medial			R.Thigh.Bottom.Lateral			R.Thigh.Bottom.Medial			R.Thigh.Top.Lateral			R.Thigh.Top.Medial			
		X1	Y1	Z1	X2	Y2	Z2	X3	Y3	Z3	X4	Y4	Z4	X5	Y5	Z5	X6	Y6	Z6	X7	Y7	Z7	X8	Y8	Z8	X9	Y9	Z9	X10	Y10	Z10	X11	Y11	Z11	X12	Y12	Z12	X13	Y13	Z13	X14	Y14	Z14	X15	Y15	Z15	X16	Y16	Z16	X17	Y17	Z17	X18	Y18	Z18	X19	Y19	Z19	X20	Y20	Z20	X21	Y21	Z21	X22	Y22	Z22	X23	Y23	Z23	X24	Y24	Z24	X25	Y25	Z25	X26	Y26	Z26	X27	Y27	Z27	X28	Y28	Z28	X29	Y29	Z29	X30	Y30	Z30	X31	Y31	Z31	X32	Y32	Z32	X33	Y33	Z33	

1688	11.24666666666667	2148.927257711557	1026.146103204728	936.7623747754294	1516.562114598782	249.4083465933803	1046.834840039322	1546.144686436858	239.2809067838371	1002.293673794773	1560.279271319314	268.6780067846575	1042.878742497389	2106.139568859268	1084.235348656517	913.069204448751	1655.056874329281	80.46390238123541	1078.256966220136	1619.386035601326	98.28990774720296	974.1785510996016	1994.888521836508	1085.671716066275	1012.497010385994	1658.665319213901	283.1261071137662	974.0328170150818	1630.635553593577	311.557494283808	1012.998462665634	1701.177544540467	349.4332756749861	957.5588581852248	1674.910255752041	377.4086267704693	995.3418129611744	1961.628278917496	706.8885894583265	902.1086512711506	1905.091092328572	730.6230083203014	941.0476422467315	1991.729532802466	810.8436232712397	884.6736883245425	1939.54979755587	833.3128918790256	926.1854029728862	2152.107082790768	1037.519228982114	1164.390843186011	2406.461357257095	141.3635627153806	1129.483172369339	2229.860786486125	56.53822525774761	1127.947099734644	2256.94652682958	73.37377039405983	1171.479684159305	2230.166752821337	99.20077434543012	1132.19859182281	2096.236811532338	1088.670663040038	1207.904152515209	2430.348249243823	112.2657705404944	1077.612604396244	2421.638134000167	87.95292466057207	1184.383316593534	1998.006157892326	1084.10481652985	1110.834388310082	2286.157925198171	231.3817249808378	1189.710772605583	2241.572376141261	233.2596343860024	1163.886858731148	2279.325687228496	314.7764689120262	1203.645709064731	2231.93979100771	311.8885955806802	1178.906749344274	2194.408674560287	671.895951906132	1210.400622239117	2143.943224780557	642.8401663572744	1169.102199839644	2133.611905814539	763.7405094867042	1219.00759196587	2086.087190455584	736.2299297586715	1179.270200614938	
1689	11.25333333333333	2150.040859205546	1026.830819314853	936.6415488485972	1510.801661771107	264.9306285428186	1046.752468615262	1539.634399385601	253.0637302568202	1002.1523892363	1555.634652487845	281.6470379843159	1042.66902198307	2107.228072627531	1086.039865967312	912.7429897673103	1640.16976245246	88.17814996019843	1078.058729363214	1605.259367405445	107.4472736481907	974.3339143324852	1995.805564783989	1087.109110252803	1011.397783861543	1652.876460935188	290.8008526851804	973.7374213902141	1625.957978846257	320.0613887882678	1012.873132513681	1697.43530500037	355.6499247910226	957.29819159329	1672.24196238372	384.4584863091862	995.1609214697315	1964.180065293079	706.7754912211918	901.8201435033541	1907.236808815982	730.3610298008283	940.1491934127548	1993.935207228108	810.7473553543482	884.1814273521038	1941.341390206511	833.1289603714883	925.1054905625055	2152.629593382867	1037.567356064828	1163.916629139851	2422.101280105221	145.467099726729	1128.297005543301	2250.343369521327	50.95578786392838	1125.310105042209	2276.510306925599	68.40277285837915	1169.144690484477	2248.205052804404	93.53276161112747	1130.290660985514	2096.909953893897	1088.847051122981	1207.318910422629	2447.723073827842	118.8490288319648	1076.012340508199	2440.418610999572	91.78641188273117	1182.302271089469	1998.557160253587	1085.062125160366	1109.99592620459	2296.922674830334	228.9669122147617	1188.810870640999	2252.489382135915	228.8812656890471	1162.606058581147	2285.910005193221	311.8930648621482	1203.181489033544	2238.899042030218	306.8857761866477	1178.019255911459	2189.400062774092	669.541755630658	1211.479563274378	2139.503540021924	641.7182362759364	1168.903334972559	2129.822655138159	762.3845429535498	1219.524806777485	2083.020312789913	735.9970308266822	1178.307556006953	
1690	11.26	2151.005069447207	1027.115227914415	936.5811140627457	1505.877442241043	279.9585010843527	1046.66456705819	1533.88733171857	266.5385558744268	1001.999586609752	1551.604304355984	294.2685707354158	1042.483435878414	2108.029336289161	1087.239308722948	912.3675467812524	1626.605777662739	96.59251816436719	1077.899517068216	1592.406764021709	117.1372480542537	974.4508203008571	1996.524781270237	1087.77242298534	1010.147839759396	1647.992027939708	298.4520894141909	973.4938390110892	1622.241515925489	328.6574920813489	1012.714054838679	1694.807655549327	361.6055615230667	957.0638086102977	1670.722089064509	391.3497549703649	994.9189271204888	1967.743831888539	705.5793480968329	901.6030712399157	1910.213806428435	728.7715689691418	939.20705950314	1996.695748816384	809.6641569765671	883.7467665927668	1943.523912974354	831.7531595662771	923.9444219615876	2152.901984102679	1037.350026884244	1163.626934850241	2434.737743233687	149.2468411704151	1127.454935824198	2267.590147915345	46.4715829142398	1122.272819765651	2292.698787282698	64.37749451415256	1166.525749618439	2263.299292943498	88.87574028888736	1127.919981751497	2097.207667606952	1088.574236907011	1206.761971774244	2461.991340636874	124.8687628406022	1074.942508862218	2455.521742079135	95.37877057844877	1180.738785895468	1998.788425961854	1085.375896967569	1109.013220336356	2305.375154032554	226.8826534995266	1187.642560719637	2261.266474689026	225.134056285323	1160.909003045237	2290.726646136579	309.2580918513794	1202.396175849241	2244.238218188204	302.4665485198089	1176.637462806592	2184.69167112657	667.192844716834	1212.479093900402	2135.424662391086	640.5535182307219	1168.598722314419	2126.181758221789	760.88102212554	1220.105380978813	2080.152923899861	735.5637540573625	1177.410987622785	
1691	11.26666666666667	2151.845705773201	1026.990117104355	936.5812771932802	1501.866576489908	294.4316962962289	1046.577893571203	1529.016965430609	279.6598374986841	1001.841175997985	1548.283120746419	306.511429704104	1042.330658474996	2108.567060927356	1087.786034691923	911.950488024031	1614.563006664588	105.5699824250909	1077.743171394218	1581.004642094828	127.26211191029	974.4903461349659	1997.08228288892	1087.621426387275	1008.783175867009	1644.089966690495	306.0858103879743	973.287201133717	1619.569201365305	337.312364282551	1012.528859765583	1693.309987741073	367.3306083857798	956.8396201191057	1670.375005324911	398.0725576232265	994.6289904749975	1972.195301513951	703.3642277225555	901.4296389698508	1913.950744754031	725.9249243227764	938.2725913554004	1999.916739013993	807.6541431616017	883.3741189395581	1946.056088883721	829.2438732485455	922.7843965898094	2152.929021706134	1036.893508658086	1163.547867847441	2444.254320124565	152.2908546963984	1126.929652260383	2281.223179715805	42.82683988165141	1118.897147459563	2305.172215241155	61.0309072521288	1163.670649162039	2275.131551152607	85.01435134742354	1125.13280811016	2097.114556055987	1087.890289649911	1206.247891249133	2473.029858371613	129.8301157820307	1074.357447406629	2466.758991960342	98.26240961781893	1179.674393791049	1998.735120540513	1085.035584054203	1107.903500105342	2311.401452871815	224.9059624873143	1186.235059545226	2267.738702296468	221.8295021179121	1158.864157947703	2293.728871291027	306.7215562323675	1201.323234825412	2247.853366227501	298.5124766478892	1174.836564629859	2180.383391367423	664.8895793450944	1213.261018822608	2131.734332203126	639.3474285168909	1168.149839799097	2122.795461649677	759.2771965841614	1220.625681399685	2077.519470926624	734.9488877492388	1176.548445191824	
